<svg data-v-0dd9719b="" version="1.0" xmlns="http://www.w3.org/2000/svg" xmlns:xlink="http://www.w3.org/1999/xlink" width="100%" height="100%" viewBox="0 0 340.000000 250.000000" preserveAspectRatio="xMidYMid meet" color-interpolation-filters="sRGB" style="margin: auto;"> <rect data-v-0dd9719b="" x="0" y="0" width="100%" height="100%" fill="#fff" fill-opacity="1" class="background"></rect> <rect data-v-0dd9719b="" x="0" y="0" width="100%" height="100%" fill="url(#watermark)" fill-opacity="1" class="watermarklayer"></rect> <g data-v-0dd9719b="" fill="#967347" class="icon-text-wrapper icon-svg-group iconsvg" transform="translate(47.61000061035156,94.30098152160645)"><g class="iconsvg-imagesvg" transform="translate(0,0)"><g><rect fill="#967347" fill-opacity="0" stroke-width="2" x="0" y="0" width="60" height="61.39803321633597" class="image-rect"></rect> <svg x="0" y="0" width="60" height="61.39803321633597" filtersec="colorsb9088609779" class="image-svg-svg primary" style="overflow: visible;"><svg xmlns="http://www.w3.org/2000/svg" viewBox="0.009992660954594612 0 175.60000610351562 179.69085693359375"><g><g><path d="M174.14 76A86.45 86.45 0 0 1 1.46 76a87.8 87.8 0 1 0 174.15 15.85A88.63 88.63 0 0 0 174.14 76z" fill="#967347"></path><path d="M109.78 0A71.4 71.4 0 1 1 15 94.77 76.95 76.95 0 1 0 109.78 0z" fill="#8bc53f"></path><path d="M76.08 5.54a64.24 64.24 0 0 0-62.54 79 61.56 61.56 0 0 1-.4-6.83A60 60 0 1 1 113.6 122 64.25 64.25 0 0 0 76.08 5.54z" fill="#bed62f"></path></g></g></svg></svg> <!----></g></g> <g transform="translate(67,14.47901725769043)"><g data-gra="path-name" fill-rule="" class="tp-name iconsvg-namesvg"><g transform="scale(1)"><g><path d="M1.11 2.65L1.11-29.74 13.67-29.74Q18.09-29.74 20.79-28.35L20.79-28.35Q24.26-26.69 25.87-23.26L25.87-23.26Q26.93-20.92 26.93-18.24L26.93-18.24 26.93-17.98Q26.93-13.53 24.13-10.39L24.13-10.39Q20.63-6.63 13.95-6.63L13.95-6.63 12.27-6.63 9.4-13.86 13.4-13.86Q16.03-13.86 17.09-15.01L17.09-15.01Q18.27-16.12 18.27-18.11L18.27-18.11Q18.27-21.05 15.79-22.07L15.79-22.07Q14.86-22.4 13.62-22.4L13.62-22.4 9.38-22.4 9.38 2.65 1.11 2.65ZM29.14 2.65L29.14-29.74 53.2-29.74Q53.25-29.72 53.25-29.7L53.25-29.7 53.25-22.42 37.79-22.42 37.79-17.14Q37.79-17.09 37.84-17.09L37.84-17.09 50.9-17.09 50.9-10.19 40.67-10.19 37.81-17.07 37.79-17.07 37.79-4.62 53.18-4.62 53.18 2.65 29.14 2.65ZM55.46 2.65L55.46-29.63 63.6-29.63Q63.73-29.41 69.3-19.04L69.3-19.04Q74.34-9.64 74.57-9.18L74.57-9.18 74.59-9.18 74.59-29.63 81.64-29.63 81.64 2.65 73.5 2.65Q73.35 2.41 71.56-0.97L71.56-0.97Q62.6-17.67 62.54-17.8L62.54-17.8 62.51-17.8 62.51 2.65 55.46 2.65ZM99.18-29.79L99.18-29.79 99.4-29.79Q104.48-29.79 108.64-27.09L108.64-27.09Q109.46-26.56 110.59-25.47L110.59-25.47Q111.34-24.63 111.67-24.17L111.67-24.17 111.67-24.17Q111.6-24.08 106.25-19.04L106.25-19.04Q105.68-19.9 104.46-20.81L104.46-20.81Q101.94-22.42 99.22-22.42L99.22-22.42 99-22.42Q95.62-22.42 93.52-19.68L93.52-19.68Q91.79-17.2 91.79-13.62L91.79-13.62 91.79-13.6Q91.79-9.31 94.18-6.63L94.18-6.63Q96.3-4.47 99.53-4.47L99.53-4.47Q102.8-4.47 105.06-5.66L105.06-5.66Q105.15-5.73 105.15-5.75L105.15-5.75 105.15-8.89 103.05-8.89Q102.96-8.93 101.7-11.9L101.7-11.9Q101.63-11.99 100.13-15.41L100.13-15.41 112.07-15.41 112.07-1.7Q111.91-1.59 111.16-0.93L111.16-0.93Q109.15 0.57 107.71 1.15L107.71 1.15Q104.26 2.65 99.64 2.65L99.64 2.65 99.35 2.65Q94.84 2.65 90.86 0.11L90.86 0.11Q89.8-0.6 88.76-1.59L88.76-1.59Q87.39-2.96 86.95-3.67L86.95-3.67Q83.85-8.03 83.85-13.49L83.85-13.49 83.85-13.73Q83.85-19.35 87.19-23.86L87.19-23.86Q87.7-24.57 89.12-25.96L89.12-25.96Q89.16-25.96 89.65-26.4L89.65-26.4Q94-29.79 99.18-29.79ZM114.28 2.65L114.28-29.74 126.6-29.74Q130.53-29.74 132.97-28.7L132.97-28.7Q134.12-28.24 135.2-27.51L135.2-27.51Q135.88-27.09 136.97-25.96L136.97-25.96Q139.73-22.82 139.73-18.4L139.73-18.4 139.73-18.09Q139.73-14.33 137.12-11.37L137.12-11.37Q135.64-9.91 134.76-9.44L134.76-9.44Q134.16-9.09 133.58-8.82L133.58-8.82 133.58-8.8 139.82 2.65 130.95 2.65Q130.93 2.63 129.71 0.24L129.71 0.24Q123.08-12.8 122.46-14.09L122.46-14.09 122.44-14.09 122.44 2.65 114.28 2.65ZM126.57-22.4L122.44-22.4 122.44-14.11 126.69-14.11Q129.91-14.11 130.84-16.39L130.84-16.39Q131.17-17.18 131.17-18.24L131.17-18.24Q131.17-21.38 128.45-22.16L128.45-22.16Q127.72-22.4 126.57-22.4L126.57-22.4ZM142.03-10.22L142.03-29.76 150.04-29.76 150.04-10.59Q150.04-6.13 152.87-5.04L152.87-5.04Q153.84-4.69 154.88-4.69L154.88-4.69 155.14-4.69Q158.37-4.69 159.5-7.43L159.5-7.43Q159.99-8.67 159.99-10.59L159.99-10.59 159.99-29.76 168.01-29.76 168.01-10.19Q168.01-4.42 164.63-0.86L164.63-0.86Q163.33 0.35 162.6 0.73L162.6 0.73Q161.87 1.24 160.47 1.77L160.47 1.77Q157.98 2.65 155.14 2.65L155.14 2.65 154.88 2.65Q149.35 2.65 145.77-0.53L145.77-0.53Q142.03-4.07 142.03-10.22L142.03-10.22ZM170.27-29.74L170.27-29.74 178.85-29.74Q178.89-29.72 178.89-29.7L178.89-29.7 178.89 2.65 170.23 2.65 170.23-29.7Q170.23-29.74 170.27-29.74Z" transform="translate(-1.1100000143051147, 29.790000915527344)"></path></g> <!----> <!----> <!----> <!----> <!----> <!----> <!----></g></g> <!----></g></g><defs v-gra="od"></defs></svg>